<svg data-name="Layer 1" xmlns="http://www.w3.org/2000/svg" width="995.74509" height="657.0383" viewBox="0 0 995.74509 657.0383" xmlns:xlink="http://www.w3.org/1999/xlink"><path d="M993.997,571.11785a361.65067,361.65067,0,0,1-16.89367,99.97188c-.23537.75106-.482,1.49089-.72861,2.242h-63.0458c.06726-.67265.13458-1.42371.20184-2.242,4.2038-48.3269,28.44008-342.45809-.53813-392.758C915.52613,282.41225,998.8846,417.56151,993.997,571.11785Z" transform="translate(-102.1249 -121.47998)" fill="#e6e6e6"/><path d="M989.26636,671.08973c-.52691.75106-1.0762,1.50212-1.6367,2.242H940.33414c.35873-.639.7735-1.39,1.25553-2.242,7.81349-14.10236,30.93991-56.26362,52.40733-99.97188,23.07046-46.97045,44.23518-95.72327,42.45274-113.368C1036.999,461.72943,1052.96223,583.04537,989.26636,671.08973Z" transform="translate(-102.1249 -121.47998)" fill="#e6e6e6"/><path d="M278.48,677.33H189.74c-.11-.34-.22-.67-.33-1-.22-.67-.44-1.33-.65-2-.02-.05-.03-.11-.05-.16-.66-2.05-1.31-4.11-1.94-6.16q-4.965-16.14-8.72-32.32a97.76134,97.76134,0,0,0,47.84,15.13c-.8-1.46-1.61-2.96-2.45-4.51l-53.31-52.82q-1.965-13.575-3.18-27.07l81.99,81.99c1.21-.27,2.41-.57,3.6-.89a90.6206,90.6206,0,0,0,22.65-9.5c.87,10.84,1.63,20.04,2.24,27.28.3,3.4.55,6.37.77,8.87,0,.05.01.11.01.16.06.71.12,1.38.18,2C278.42,676.68,278.45,677.01,278.48,677.33Z" transform="translate(-102.1249 -121.47998)" fill="#e6e6e6"/><path d="M273.75,619.55q-2.205,1.665-4.54,3.14a72.25286,72.25286,0,0,1-15.27,7.38L172.4,548.53l-7.16-7.16q-.195-3.96-.31-7.92-.21-6.45008-.26-12.88a75.43641,75.43641,0,0,1,57.49-36.11c2.22-.21,4.48-.31,6.76-.31A74.29425,74.29425,0,0,1,251.84,487.77a75.17712,75.17712,0,0,1,13.55,5.87c1.28,23.03,2.66,45.12,4.03,65.56H262.28v16.67h8.27c.66,9.36,1.3,18.3,1.92,26.73Q273.13,611.465,273.75,619.55Z" transform="translate(-102.1249 -121.47998)" fill="#e6e6e6"/><path d="M264.03,468.14q.165,3.19493.33,6.38a91.36157,91.36157,0,0,0-99.34,19.29q.59994-16.92,2.1-33.52c16.24-182.78,107.24-331.54,111.74-338.81-23.06,40.4-22.07,190.96-15.82,326.1Q263.52,457.93,264.03,468.14Z" transform="translate(-102.1249 -121.47998)" fill="#e6e6e6"/><path d="M172.4,548.53l-7.16-7.16-7.19-7.19a76.84651,76.84651,0,0,1,3.41-7.83q1.725,3.555,3.47,7.1Q168.65,541.025,172.4,548.53Z" transform="translate(-102.1249 -121.47998)" fill="#e6e6e6"/><path d="M240.47,677.33H173.9c-.25-.33-.5-.66-.75-1-.49005-.66-.98-1.33-1.45-2-.04-.05-.07-.11-.11-.16q-8.535-11.805-15.75-24.12l-.01-.01c-20.98-35.63-34.05-73.8-42.04-110.06-18.94-85.99-9.28-161.18-8.62-166-1.8,18.49,14.14,61.03,35.74,108.74,3.83,8.47,7.84,17.1,11.96,25.78a91.29423,91.29423,0,0,0-13.16,30.68l57.11,57.11c9.92,18.99,19.12,36.17,26.62,50.02l-53.31-52.82L137.2,560.86a90.50639,90.50639,0,0,0,26.69,63.37,87.00854,87.00854,0,0,0,14.16,11.46,97.76134,97.76134,0,0,0,47.84,15.13c5.48,10.09,9.9,18.1,12.81,23.35.03.06.06.11.09.16.22.39.43.76.63,1.12.17005.31.33.6.49.88C240.1,676.68,240.29,677.01,240.47,677.33Z" transform="translate(-102.1249 -121.47998)" fill="#e6e6e6"/><rect x="6.74765" y="552.85177" width="984" height="2" fill="#2f2e41"/><path d="M663.45,604.7H605.09v23.34h30.85c-5.01,15.85-16.68,26.69-38.36,26.69-24.18,0-41.69-20.02-41.69-44.2s16.68-45.02,40.86-45.02a45.06252,45.06252,0,0,1,35.02,17.51l19.18-12.51a66.023,66.023,0,0,0-54.2-27.52c-36.69,0-66.71,30.02-66.71,67.54,0,29.67,17.73,54.66,44.13,63.8a63.97067,63.97067,0,0,0,6.96,2,70.93354,70.93354,0,0,0,31.23,0,64.14476,64.14476,0,0,0,6.97-2c26.39-9.14,44.12-34.13,44.12-63.8C664.29,608.03,663.45,606.36,663.45,604.7ZM1071.18994,590.52l-23.34985,47.53-22.75-41.84L1022,590.52H994.48l20.02,35.46,20,35.42-6.84009,12.93-1.05993,2-22.11,41.77h26.67993L1053.01,676.33l1.04-2L1097.87,590.52ZM990.89,609.57a40.24654,40.24654,0,0,0-9.91-12.49,39.372,39.372,0,0,0-25.69-9.06c-6.67,0-18.34,1.67-26.68,13.34V533.82H905.26V673.9h22.51V663.06a32.02511,32.02511,0,0,0,12.28,10.27c.8.38,1.6.71,2.39,1a33.36449,33.36449,0,0,0,9.65,2c.91.06,1.7.07,2.37.07.85,0,1.68-.02,2.51-.07a43.01325,43.01325,0,0,0,11.05005-2c.94-.3,1.85-.63,2.74-1a38.10012,38.10012,0,0,0,6.76-3.55c11.67-7.69,18.63-21.41,18.63-37.57A49.16388,49.16388,0,0,0,990.89,609.57Zm-40.76,45.97c-.22.02-.45.02-.68.02-14.17,0-23.34-10.01-23.34-23.35s9.17-23.34,23.34-23.34c9.08,0,16.1,4.1,19.97,10.55a24.546,24.546,0,0,1,3.38,12.79C972.8,645.32,963.13,655.22,950.13,655.54Zm-60.71-23.33c-4.17-6.67-14.18-9.17-20.85-11.67l-5.83-1.67c-6.67-2.5-7.51-5-7.51-7.5,0-4.17,3.34-6.67,9.17-6.67,2.51,0,7.51.83,13.34,5.83l11.68-13.34a41.99381,41.99381,0,0,0-26.68-9.17c-6.67,0-15.01.83-21.68,5.84a27.44967,27.44967,0,0,0-8.34,19.17,21.36469,21.36469,0,0,0,6.67,15.85c5,5,11.67,7.5,17.51,10l5,1.67c3.34.83,7.51,3.34,7.51,8.34,0,5.84-5.01,9.17-11.68,9.17s-13.34-5-18.34-10.01l-12.51,14.18c4.03,4.03,9.66,9.26,18.52,12.1a44.15454,44.15454,0,0,0,11.26,2c.89.05,1.8.07,2.74.07.79,0,1.58-.02,2.35-.07a37.4065,37.4065,0,0,0,10.46-2,36.15486,36.15486,0,0,0,12.21-7.1,26.7322,26.7322,0,0,0,9.17-20.84A23.87938,23.87938,0,0,0,889.42,632.21Zm-82.55-41.69V562.17H783.52v28.35h-9.17v20.01h9.17V673.9h23.35V610.53h15.84V590.52Zm-70.04,0v10.84c-7.5-12.51-20.01-13.34-26.68-13.34-24.18005,0-40.86,19.18005-40.86,44.19,0,19.58,10.93,36.42,28.82,42.12a43.63206,43.63206,0,0,0,11.14,2c.85.05,1.7.07,2.57.07.89,0,1.85-.01,2.87-.07a30.148,30.148,0,0,0,9.65-2c4.51-1.79,9.23-5.11,13.31994-11.27V673.9h23.35V590.52Zm-19.18,65.04c-14.17,0-23.35-10.01-23.35-23.35s10.01-23.34,23.35-23.34c14.18,0,23.35,10,23.35,23.34S730.99,655.56,717.65,655.56Z" transform="translate(-102.1249 -121.47998)"/><path d="M270.55,575.87c.66,9.36,1.3,18.3,1.92,26.73q.66,8.865,1.28,16.95a73.59124,73.59124,0,0,0,8.39-7.28,76.4026,76.4026,0,0,0,20.16-36.4ZM164.93,533.45q-.21-6.45008-.26-12.88-1.72494,2.805-3.21,5.78a76.84651,76.84651,0,0,0-3.41,7.83l7.19,7.19Q165.045,537.41,164.93,533.45Zm105.62,42.42c.66,9.36,1.3,18.3,1.92,26.73q.66,8.865,1.28,16.95a73.59124,73.59124,0,0,0,8.39-7.28,76.4026,76.4026,0,0,0,20.16-36.4Zm0,0c.66,9.36,1.3,18.3,1.92,26.73q.66,8.865,1.28,16.95a73.59124,73.59124,0,0,0,8.39-7.28,76.4026,76.4026,0,0,0,20.16-36.4Zm-105.88-55.3q-1.72494,2.805-3.21,5.78a76.84651,76.84651,0,0,0-3.41,7.83l7.19,7.19q-.195-3.96-.31-7.92Q164.72,526.99993,164.67,520.57ZM337.09,515.44a117.74694,117.74694,0,0,0-74.05-67.86,116.09591,116.09591,0,0,0-95.92,12.71,118.00739,118.00739,0,0,0-26.21,22.43A116.289,116.289,0,0,0,155.83,650.04l.01.01a116.9428,116.9428,0,0,0,30.93,17.96,115.74138,115.74138,0,0,0,42.15,7.92q5.31006,0,10.5-.48,4.395-.39,8.69-1.12a114.26934,114.26934,0,0,0,29.32-9.03,117.78741,117.78741,0,0,0,61.17-66.23,114.65572,114.65572,0,0,0,5.86-23.2,116.11195,116.11195,0,0,0-7.37-60.43ZM178.05,635.69a87.00854,87.00854,0,0,1-14.16-11.46,90.50639,90.50639,0,0,1-26.69-63.37l32.93,32.63,53.31,52.82,4.65,4.61c-.73-.03-1.47-.06-2.2-.1A97.76134,97.76134,0,0,1,178.05,635.69Zm141.04-59.82a91.41509,91.41509,0,0,1-25.45,47.9,93.12626,93.12626,0,0,1-12.74,10.61c-1.85,1.28-3.76,2.5-5.71,3.64a90.6206,90.6206,0,0,1-22.65,9.5c-1.19.32-2.39.62-3.6.89L139.71,539.18a91.29423,91.29423,0,0,1,13.16-30.68,93.09412,93.09412,0,0,1,12.15-14.69,90.99929,90.99929,0,0,1,63.9-26.33,91.201,91.201,0,0,1,53.4,17.05A93.56227,93.56227,0,0,1,303.13,505l-12.5,10.84a79.2519,79.2519,0,0,0-25.24-22.2,75.17712,75.17712,0,0,0-13.55-5.87A74.29425,74.29425,0,0,0,228.92,484.15c-2.28,0-4.54.1-6.76.31A75.43641,75.43641,0,0,0,164.67,520.57q-1.72494,2.805-3.21,5.78a76.84651,76.84651,0,0,0-3.41,7.83l7.19,7.19,7.16,7.16,81.54,81.54a72.25286,72.25286,0,0,0,15.27-7.38q2.34-1.47006,4.54-3.14a73.59124,73.59124,0,0,0,8.39-7.28,76.4026,76.4026,0,0,0,20.16-36.4H262.28V559.2h58.36A89.8968,89.8968,0,0,1,319.09,575.87Zm-48.54,0c.66,9.36,1.3,18.3,1.92,26.73q.66,8.865,1.28,16.95a73.59124,73.59124,0,0,0,8.39-7.28,76.4026,76.4026,0,0,0,20.16-36.4Zm0,0c.66,9.36,1.3,18.3,1.92,26.73q.66,8.865,1.28,16.95a73.59124,73.59124,0,0,0,8.39-7.28,76.4026,76.4026,0,0,0,20.16-36.4Z" transform="translate(-102.1249 -121.47998)" fill="#639"/><polygon points="332.398 648.706 365.998 643.436 352.162 628.942 332.398 628.942 332.398 648.706" fill="#ffb8b8"/><path d="M440.95507,778.18692l33.236-10.93289a6.46384,6.46384,0,0,0,3.76164-9.03088h0a6.46383,6.46383,0,0,0-6.21719-3.55841l-7.5392.5094-2.95462-1.66282a1.71864,1.71864,0,0,0-2.4321,2.15212l2.7247,6.61714-27.67067-1.97648-1.36525,10.922A6.48147,6.48147,0,0,0,440.95507,778.18692Z" transform="translate(-102.1249 -121.47998)" fill="#2f2e41"/><path d="M343.05633,753.6355l34.91776,9.22356c-6.43127-13.34134-10.39163-25.14583-7.90591-32.94128l-16.47064-1.97648Z" transform="translate(-102.1249 -121.47998)" fill="#ffb8b8"/><path d="M345.20292,765.34415l36.12873,2.34259a6.68859,6.68859,0,0,0,7.09939-7.21643v0a6.68861,6.68861,0,0,0-4.59385-5.81747l-7.43422-2.42311-2.19407-2.73754a1.77841,1.77841,0,0,0-3.16605,1.12654l.05968,7.40476-25.79974-12.58559-5.52939,9.9575A6.70685,6.70685,0,0,0,345.20292,765.34415Z" transform="translate(-102.1249 -121.47998)" fill="#2f2e41"/><circle cx="357.42276" cy="201.96868" r="24.37655" fill="#ffb8b8"/><path d="M420.86883,355.18531l28.17744,21.30489c4.55407-17.38739,10.0199-29.80731,17.18138-32.98823L438.0502,327.00786Z" transform="translate(-102.1249 -121.47998)" fill="#ffb8b8"/><polygon points="245.895 606.197 269.949 616.506 325.616 485.241 330.084 631.282 354.138 629.908 380.94 401.052 378.879 387.994 287.817 408.268 286.443 481.804 245.895 606.197" fill="#2f2e41"/><path d="M487.18892,316.35541s-15.80686-14.43236-20.61765-8.24706-6.18529,7.5598-8.93431,7.5598-9.62157,7.5598-9.62157,7.5598-3.43627-6.87254-7.5598-1.37451-4.81079,13.7451-4.81079,13.7451-15.1196-35.05,11.68334-41.92254S493.37421,308.10835,487.18892,316.35541Z" transform="translate(-102.1249 -121.47998)" fill="#2f2e41"/><path d="M383.75706,540.74412c13.05785-5.718,13.44275-1.23021,32.301,6.18529,23.75157,2.94831,38.85054,3.32629,46.3897-6.52892,3.08577-19.56617,5.61482-38.32822,7.17491-56.16937q.48447-5.51518.83843-10.92044c2.749-41.97066-.61847-78.457-15.91677-107.81655l-27.49019-20.61765-8.96871,6.50829c-21.42168,15.5457-18.0886,39.4278-20.93376,65.74282Z" transform="translate(-102.1249 -121.47998)" fill="#663399"/><polygon points="364.79 413.079 379.222 400.708 377.848 388.338 364.79 388.338 364.79 413.079" fill="#ffb8b8"/><path d="M428.82479,410.50932S388.22207,463.428,417.224,487.48187s45.22373,39.17352,45.22373,39.17352S460.72693,422.87991,428.82479,410.50932Z" transform="translate(-102.1249 -121.47998)" opacity="0.2"/><path d="M444.57912,463.428l25.04353,20.80317q.48447-5.51518.83843-10.92044l-16.94765-75.8592Z" transform="translate(-102.1249 -121.47998)" opacity="0.2"/><path d="M462.79137,526.31177l19.93039-15.80686-26.11568-65.97647-.59285-68.77093a15.65921,15.65921,0,0,0-10.41264-14.61934h0a15.6592,15.6592,0,0,0-20.90375,14.54273l-1.079,79.84363Z" transform="translate(-102.1249 -121.47998)" fill="#663399"/></svg>