<?xml version="1.0" encoding="UTF-8" standalone="no"?>
<!DOCTYPE svg PUBLIC "-//W3C//DTD SVG 1.1//EN" "http://www.w3.org/Graphics/SVG/1.1/DTD/svg11.dtd">
<svg width="100%" height="100%" viewBox="0 0 2061 2061" version="1.1" xmlns="http://www.w3.org/2000/svg" xmlns:xlink="http://www.w3.org/1999/xlink" xml:space="preserve" xmlns:serif="http://www.serif.com/" style="fill-rule:evenodd;clip-rule:evenodd;stroke-linejoin:round;stroke-miterlimit:2;">
    <g transform="matrix(4.16667,0,0,4.16667,-5618.58,-8085.33)">
        <path d="M1843.08,2187.79C1843.08,2324.37 1732.36,2435.1 1595.77,2435.1C1459.19,2435.1 1348.46,2324.37 1348.46,2187.79C1348.46,2051.2 1459.19,1940.48 1595.77,1940.48C1732.36,1940.48 1843.08,2051.2 1843.08,2187.79Z" style="fill:rgb(204,51,102);fill-rule:nonzero;"/>
    </g>
    <g transform="matrix(4.16667,0,0,4.16667,-3069.81,-18219.6)">
        <path d="M1010.44,4580.83C1007.34,4580.06 1003.46,4579.28 998.416,4579.28C972.816,4579.28 952.646,4604.49 952.646,4634.36C952.646,4649.1 959.24,4658.41 972.04,4658.41C986.392,4658.41 1001.52,4640.18 1005.01,4617.68L1010.44,4580.83ZM1044.96,4741.03C1021.69,4751.5 1001.52,4754.99 973.979,4754.99C909.591,4754.99 852.96,4708.83 852.96,4632.81C852.96,4553.68 910.366,4485.03 998.028,4485.03C1066.3,4485.03 1115.17,4531.96 1115.17,4597.12C1115.17,4653.75 1083.36,4689.44 1041.47,4689.44C1023.24,4689.44 1010.05,4680.13 1008.11,4659.57L1007.34,4659.57C995.313,4679.35 977.858,4689.44 957.3,4689.44C932.088,4689.44 913.857,4670.82 913.857,4639.02C913.857,4591.69 948.767,4548.64 1004.62,4548.64C1021.69,4548.64 1041.08,4552.91 1050.78,4558.34L1039.14,4630.09C1035.27,4652.98 1037.98,4663.45 1048.84,4663.84C1065.52,4664.23 1086.47,4642.89 1086.47,4598.29C1086.47,4547.86 1053.88,4508.69 993.761,4508.69C934.415,4508.69 882.439,4555.23 882.439,4629.32C882.439,4694.09 923.942,4730.94 981.737,4730.94C1001.52,4730.94 1022.46,4726.68 1037.98,4718.53L1044.96,4741.03Z" style="fill:white;fill-rule:nonzero;"/>
    </g>
</svg>
