<svg viewBox="0 0 163 31" >
  <path d="M50.6323 17.1897V6H45.8952V18.3663C45.8952 19.3926 45.82 20.7194 44.4666 20.7194C43.2635 20.7194 43.088 19.4928 43.0379 18.5665H38C38 21.2701 39.1028 23.473 41.7346 24.4242C42.5115 24.7246 43.3888 24.8748 44.241 24.8748C46.221 24.8748 48.2262 23.9987 49.4794 22.4466C50.6323 20.9947 50.6323 18.9671 50.6323 17.1897Z" fill="white"/>
  <path d="M67.9665 24.5244V10.6311H63.8059V12.108H63.7558C62.9286 10.7312 61.2243 10.1555 59.6954 10.1555C55.5097 10.1555 52.7025 13.5099 52.7025 17.5652C52.7025 21.6957 55.4094 25 59.6954 25C61.1992 25 63.0038 24.4493 63.7558 23.0224H63.8059V24.5244H67.9665ZM63.8059 17.5652C63.8059 19.5679 62.3522 21.1199 60.322 21.1199C58.367 21.1199 56.8631 19.5428 56.8631 17.6153C56.8631 15.6377 58.2667 14.0356 60.2969 14.0356C62.3271 14.0356 63.8059 15.5375 63.8059 17.5652Z" fill="white"/>
  <path d="M92.3565 24.5244V16.9394C92.3565 14.8116 92.4317 13.1594 90.8527 11.5573C89.8752 10.556 88.5718 10.1555 87.1933 10.1555C85.3135 10.1555 83.7846 11.0567 82.782 12.6337C81.9298 11.0567 80.5764 10.1555 78.7717 10.1555C77.1927 10.1555 75.739 10.6812 74.9369 12.108H74.8868V10.6311H71.0018V24.5244H75.1625V17.1397C75.1625 15.5125 75.5886 14.0606 77.5185 14.0606C79.273 14.0606 79.5989 15.5375 79.5989 16.9644V24.5244H83.7595V16.9394C83.7595 15.3623 84.2107 14.0606 86.0654 14.0606C87.9953 14.0606 88.1959 15.6126 88.1959 17.1397V24.5244H92.3565Z" fill="white"/>
  <path d="M105.709 20.2688C105.709 15.3623 98.7165 16.5889 98.7165 14.4111C98.7165 13.7852 99.3431 13.4848 99.8945 13.4848C100.621 13.4848 101.173 13.7602 101.198 14.5362H105.283C105.008 11.5823 102.727 10.1555 99.9447 10.1555C97.2628 10.1555 94.5559 11.8327 94.5559 14.7365C94.5559 16.6891 96.2101 17.7655 97.8643 18.3663C98.4659 18.5916 99.0674 18.7918 99.669 18.9921C100.421 19.2925 101.549 19.5929 101.549 20.5942C101.549 21.3202 100.722 21.6706 100.095 21.6706C99.2679 21.6706 98.6413 21.2451 98.516 20.3939H94.3804C94.7063 23.448 97.1375 25 100.045 25C102.877 25 105.709 23.3979 105.709 20.2688Z" fill="white"/>
  <path d="M114.783 13.7852V10.6311H112.778V6H108.617V10.6311H106.562V13.7852H108.617V24.5244H112.778V13.7852H114.783Z" fill="white"/>
  <path d="M130.823 24.5244V10.6311H126.662V12.108H126.612C125.785 10.7312 124.08 10.1555 122.552 10.1555C118.366 10.1555 115.559 13.5099 115.559 17.5652C115.559 21.6957 118.266 25 122.552 25C124.055 25 125.86 24.4493 126.612 23.0224H126.662V24.5244H130.823ZM126.662 17.5652C126.662 19.5679 125.208 21.1199 123.178 21.1199C121.223 21.1199 119.719 19.5428 119.719 17.6153C119.719 15.6377 121.123 14.0356 123.153 14.0356C125.183 14.0356 126.662 15.5375 126.662 17.5652Z" fill="white"/>
  <path d="M147.919 19.2424H143.683C143.057 20.444 142.054 21.0949 140.675 21.0949C138.645 21.0949 137.367 19.5178 137.367 17.5652C137.367 15.6877 138.57 14.0356 140.575 14.0356C142.004 14.0356 143.082 14.6864 143.683 15.9881H147.894C147.167 12.4585 144.084 10.1555 140.525 10.1555C136.39 10.1555 133.181 13.4348 133.181 17.5402C133.181 21.6957 136.465 24.975 140.625 24.975C144.134 24.975 147.117 22.6469 147.919 19.2424Z" fill="white"/>
  <path d="M163 10.6311H158.062L154.202 15.6627H154.152V6H149.992V24.5244H154.152V17.8406H154.202L158.138 24.5244H162.85L157.762 16.7391L163 10.6311Z" fill="white"/>
  <path d="M15.5 0C6.92916 0 0 6.92916 0 15.5C0 24.0708 6.92916 31 15.5 31C24.0708 31 31 24.0708 31 15.5V0H15.5Z" fill="#F0047F"/>
  <path d="M3 16C3.18286 22.5371 8.46286 27.8171 15 28V16H3Z" fill="white"/>
  <path fill-rule="evenodd" clip-rule="evenodd" d="M15 28V16H3C3.00321 16.1147 3.00798 16.229 3.01431 16.3428C3.36216 22.6069 8.39306 27.6378 14.6572 27.9857C14.771 27.992 14.8853 27.9968 15 28ZM3.35769 16.3428C3.70469 22.4175 8.58253 27.2953 14.6572 27.6423V16.3428H3.35769Z" fill="#F0047F"/>
  <path d="M15 28C20.9924 27.8171 25.8324 22.5371 26 16H15V28Z" fill="white"/>
  <path fill-rule="evenodd" clip-rule="evenodd" d="M26 16H15V28C15.1051 27.9968 15.2099 27.992 15.3143 27.9857C21.0564 27.6378 25.668 22.6069 25.9869 16.3428C25.9927 16.229 25.9971 16.1147 26 16ZM25.6721 16.3428H15.3143V27.6423C20.8827 27.2953 25.354 22.4175 25.6721 16.3428Z" fill="#F0047F"/>
  <path d="M26 5H15V16H26V5Z" fill="white"/>
  <path fill-rule="evenodd" clip-rule="evenodd" d="M25.6857 5.31426H15.3143V15.6857H25.6857V5.31426ZM26 5V16H15V5H26Z" fill="#F0047F"/>
</svg>
