<svg data-name="Layer 1" xmlns="http://www.w3.org/2000/svg" width="809.34183" height="614.73442" viewBox="0 0 809.34183 614.73442" xmlns:xlink="http://www.w3.org/1999/xlink"><path d="M791.997,565.36721a192.18383,192.18383,0,0,1-105.99,171.7q-2.445,1.22992-4.94,2.39a192.75467,192.75467,0,0,1-137.16,9.59q-6.675-2.04-13.14-4.54a192.05726,192.05726,0,0,1,39.53-368.86,193.86954,193.86954,0,0,1,29.7-2.28C706.03707,373.36721,791.997,459.32717,791.997,565.36721Z" transform="translate(-195.32909 -142.63279)" fill="#f2f2f2"/><path d="M805.92451,592.73135c28.62238-31.07671,43.35015-77.60333,27.91791-116.93279A194.65874,194.65874,0,0,1,731.856,562.17047c-16.653,6.05342-35.80544,11.05231-44.85145,26.28843-5.62883,9.48017-6.0279,21.34652-3.47713,32.07231,2.55117,10.72626,7.7914,20.58972,12.97964,30.31823l.03231,2.75213C737.0741,641.688,777.30214,623.80805,805.92451,592.73135Z" transform="translate(-195.32909 -142.63279)" fill="#e6e6e6"/><path d="M832.981,476.00818a166.38082,166.38082,0,0,1-44.71885,92.08317c-5.22024,5.37409-10.98347,10.37135-17.64547,13.878a41.094,41.094,0,0,1-21.15,4.52024c-6.83951-.24388-13.80734-1.28537-20.587.13758-7.14614,1.49987-12.80055,6.11432-16.46876,12.33837-4.48815,7.6153-5.97235,16.38911-7.1256,25.01961-1.28046,9.58251-2.45863,19.556-7.93091,27.80343-.663.99929.92628,1.96967,1.58833.9719,9.52082-14.34906,6.31256-32.67206,12.73085-48.14263,2.99489-7.21885,8.18342-13.57889,15.94719-15.76555,6.78908-1.91213,13.97529-.84428,20.8983-.5375,7.26928.32213,14.18908-.57107,20.84482-3.64929,6.80844-3.14886,12.77918-7.93133,18.11393-13.14838a161.41928,161.41928,0,0,0,29.81147-40.70067A169.33137,169.33137,0,0,0,834.843,476.04572c.16571-1.18374-1.69738-1.21355-1.862-.03754Z" transform="translate(-195.32909 -142.63279)" fill="#fff"/><path d="M796.53692,560.42564A24.96241,24.96241,0,0,0,828.7713,558.024c.85-.84431-.42208-2.20485-1.27322-1.35942a23.11465,23.11465,0,0,1-29.98927,2.17279c-.9649-.71037-1.93128.882-.97189,1.58832Z" transform="translate(-195.32909 -142.63279)" fill="#fff"/><path d="M752.91834,587.07a48.1131,48.1131,0,0,1,7.25751-34.30408c.65948-1.0016-.92964-1.97229-1.58832-.9719a50.04485,50.04485,0,0,0-7.47954,35.71186c.2,1.18376,2.00927.74146,1.81035-.43588Z" transform="translate(-195.32909 -142.63279)" fill="#fff"/><path d="M823.75841,513.516a14.12994,14.12994,0,0,1-8.1359-10.657c-.18489-1.18572-1.994-.74212-1.81035.43588a15.83375,15.83375,0,0,0,8.97436,11.80946.96232.96232,0,0,0,1.28011-.30821.93575.93575,0,0,0-.30822-1.28011Z" transform="translate(-195.32909 -142.63279)" fill="#fff"/><path d="M697.92588,431.19732c.0944.74366.18879,1.48732.27168,2.24174a186.08373,186.08373,0,0,1,1.20356,30.16144c-.01981.779-.05163,1.56828-.09379,2.34514A196.17355,196.17355,0,0,1,682.34177,536.15a190.5093,190.5093,0,0,1-13.85751,25.41329c-7.2607,11.19626-16.024,22.75815-19.07222,35.32908a32.6824,32.6824,0,0,0-.75277,3.97433l44.52009,52.56086c.16112.06867.31081.148.47243.2173l1.68159,2.17987c.30033-.39919.60324-.81968.90357-1.21888.17518-.23084.34044-.47339.51561-.70423.11365-.1576.22687-.31585.33843-.45158.038-.05232.07554-.10522.10164-.14743.11156-.13573.20077-.27364.30032-.3992q2.54951-3.5186,5.05841-7.08528c.012-.01017.012-.01017.01409-.032,12.69819-18.1501,23.9927-37.51975,31.9882-57.98791.24035-.61589.4932-1.24137.71322-1.88127a181.78862,181.78862,0,0,0,8.34563-28.46793,160.70992,160.70992,0,0,0,2.42444-16.07921,133.6406,133.6406,0,0,0-2.4996-41.70958c-6.01439-27.28228-20.68718-52.33735-43.83189-67.33437C699.11309,431.94254,698.53024,431.57038,697.92588,431.19732Z" transform="translate(-195.32909 -142.63279)" fill="#e6e6e6"/><path d="M697.35886,431.88053a166.38085,166.38085,0,0,1,19.73494,100.4471c-.93251,7.43385-2.52542,14.89374-5.73341,21.70459a41.09414,41.09414,0,0,1-14.1656,16.34291c-5.60779,3.92314-11.79826,7.28667-16.35475,12.50466-4.80277,5.5-6.53928,12.58876-5.72083,19.76683,1.0014,8.78257,5.09879,16.68156,9.37414,24.26686,4.747,8.422,9.811,17.09467,10.4072,26.97444.07223,1.19707,1.92546,1.015,1.85333-.18027-1.03727-17.18912-14.6306-29.88741-18.82031-46.104-1.955-7.567-1.64142-15.769,3.241-22.18922,4.26947-5.61423,10.65017-9.0882,16.36251-13.01138,5.99806-4.11941,10.98537-8.99877,14.44629-15.46378,3.54034-6.61334,5.42826-14.02667,6.54673-21.40408a161.41909,161.41909,0,0,0-.70182-50.44577,169.33135,169.33135,0,0,0-18.96009-54.29991c-.58039-1.04492-2.08591.053-1.50932,1.09107Z" transform="translate(-195.32909 -142.63279)" fill="#fff"/><path d="M719.08542,521.225a24.96241,24.96241,0,0,0,24.29136-21.32494c.17036-1.1859-1.66448-1.50633-1.83506-.31885a23.11464,23.11464,0,0,1-22.63658,19.79045c-1.19811.01375-1.011,1.867.18028,1.85334Z" transform="translate(-195.32909 -142.63279)" fill="#fff"/><path d="M700.30015,568.76043A48.11308,48.11308,0,0,1,685.44144,537.001c-.07647-1.19677-1.92972-1.01505-1.85333.18028a50.04481,50.04481,0,0,0,15.529,33.01711c.87239.82476,2.05069-.6177,1.183-1.438Z" transform="translate(-195.32909 -142.63279)" fill="#fff"/><path d="M712.5774,467.38107a14.12993,14.12993,0,0,1-12.91232-3.61066c-.86151-.83541-2.03894.608-1.183,1.438a15.83377,15.83377,0,0,0,14.27564,4.026.96233.96233,0,0,0,.83653-1.01681.93575.93575,0,0,0-1.01681-.83653Z" transform="translate(-195.32909 -142.63279)" fill="#fff"/><path d="M1003.65739,179.93261H196.34261a1.03636,1.03636,0,0,1,0-2.07221h807.31478a1.03636,1.03636,0,0,1,0,2.07221Z" transform="translate(-195.32909 -142.63279)" fill="#cacaca"/><ellipse cx="23.82568" cy="11.39717" rx="11.14871" ry="11.39717" fill="#3f3d56"/><ellipse cx="62.33942" cy="11.39717" rx="11.14871" ry="11.39717" fill="#3f3d56"/><ellipse cx="100.85315" cy="11.39717" rx="11.14871" ry="11.39717" fill="#3f3d56"/><path d="M980.58187,149.60407h-27.365a2.07271,2.07271,0,0,1,0-4.14442h27.365a2.07271,2.07271,0,0,1,0,4.14442Z" transform="translate(-195.32909 -142.63279)" fill="#3f3d56"/><path d="M980.58187,157.37487h-27.365a2.07272,2.07272,0,0,1,0-4.14443h27.365a2.07272,2.07272,0,0,1,0,4.14443Z" transform="translate(-195.32909 -142.63279)" fill="#3f3d56"/><path d="M980.58187,165.14567h-27.365a2.07272,2.07272,0,0,1,0-4.14443h27.365a2.07272,2.07272,0,0,1,0,4.14443Z" transform="translate(-195.32909 -142.63279)" fill="#3f3d56"/><path d="M414.21007,643.48668c-22.8359-24.794-34.58622-61.91457-22.27385-93.293a155.30534,155.30534,0,0,0,81.36824,68.91044c13.28632,4.82962,28.5668,8.81791,35.784,20.97381,4.49087,7.56359,4.80926,17.031,2.77417,25.58837-2.03541,8.55778-6.21625,16.42718-10.3556,24.18891l-.02577,2.19575C469.14127,682.54593,437.046,668.28073,414.21007,643.48668Z" transform="translate(-195.32909 -142.63279)" fill="#e6e6e6"/><path d="M392.62345,550.361a132.74424,132.74424,0,0,0,35.67822,73.46708,57.16424,57.16424,0,0,0,14.07816,11.07234,32.78626,32.78626,0,0,0,16.87418,3.60639c5.45679-.19457,11.016-1.02551,16.425.10977a20.07512,20.07512,0,0,1,13.13934,9.844c3.58081,6.07575,4.76495,13.07579,5.685,19.96149,1.02159,7.64526,1.96158,15.60247,6.32755,22.18252.529.79727-.739,1.57148-1.26722.77542-7.596-11.44817-5.03638-26.06688-10.15711-38.40982-2.38943-5.75945-6.529-10.83371-12.72321-12.57829-5.41656-1.52557-11.15-.6736-16.67337-.42884a34.9855,34.9855,0,0,1-16.6307-2.91153,52.84668,52.84668,0,0,1-14.45191-10.49023,128.78543,128.78543,0,0,1-23.78461-32.47237,135.09845,135.09845,0,0,1-14.005-43.69794c-.13221-.94443,1.35423-.96822,1.48557-.03Z" transform="translate(-195.32909 -142.63279)" fill="#fff"/><path d="M421.69981,617.71209a19.91585,19.91585,0,0,1-25.71768-1.91615c-.67817-.67362.33674-1.75911,1.01582-1.08459a18.44165,18.44165,0,0,0,23.92645,1.73352c.76983-.56676,1.54084.7037.77541,1.26722Z" transform="translate(-195.32909 -142.63279)" fill="#fff"/><path d="M456.50019,638.96984a38.3862,38.3862,0,0,0-5.79029-27.369c-.52615-.79911.7417-1.57356,1.26722-.77541a39.92746,39.92746,0,0,1,5.96743,28.49213c-.15957.94445-1.60306.59156-1.44436-.34776Z" transform="translate(-195.32909 -142.63279)" fill="#fff"/><path d="M399.98158,580.286a11.27335,11.27335,0,0,0,6.4911-8.50253c.14751-.946,1.59091-.59209,1.44436.34776a12.63272,12.63272,0,0,1-7.16005,9.422.76778.76778,0,0,1-1.02132-.24591.74656.74656,0,0,1,.24591-1.02131Z" transform="translate(-195.32909 -142.63279)" fill="#fff"/><path d="M500.375,514.60935c-.07531.59332-.15062,1.18664-.21675,1.78854a148.46376,148.46376,0,0,0-.96024,24.06381c.01581.62156.04119,1.25123.07482,1.871a156.514,156.514,0,0,0,13.53571,56.01138,151.9949,151.9949,0,0,0,11.056,20.27558c5.79283,8.93276,12.78449,18.15723,15.21647,28.18675a26.07521,26.07521,0,0,1,.60058,3.17085L504.162,691.91214c-.12855.05479-.248.11811-.37692.17337l-1.34163,1.73917c-.23962-.31849-.48129-.654-.7209-.97246-.13976-.18417-.27161-.37769-.41137-.56186-.09067-.12574-.181-.252-.27-.36029-.03033-.04174-.06027-.08395-.08109-.11763-.089-.10828-.16018-.21831-.23961-.31849q-2.03408-2.80725-4.03577-5.65287c-.00958-.00811-.00958-.00811-.01124-.02557-10.13105-14.48076-19.14219-29.93452-25.52127-46.26472-.19176-.49138-.39349-.99041-.569-1.50094a145.03647,145.03647,0,0,1-6.65843-22.71268,128.21835,128.21835,0,0,1-1.9343-12.82854,106.62272,106.62272,0,0,1,1.99427-33.27732c4.79848-21.76673,16.50493-41.75651,34.97057-53.72165C499.42785,515.20391,499.89287,514.907,500.375,514.60935Z" transform="translate(-195.32909 -142.63279)" fill="#e6e6e6"/><path d="M500.82743,515.15444a132.74422,132.74422,0,0,0-15.7452,80.1401,57.16432,57.16432,0,0,0,4.57431,17.31666,32.78634,32.78634,0,0,0,11.30179,13.03893c4.47409,3.13,9.41306,5.81355,13.04838,9.97664a20.07514,20.07514,0,0,1,4.56427,15.77065c-.79895,7.007-4.068,13.30911-7.479,19.36092-3.78728,6.71938-7.82755,13.63871-8.30321,21.52113-.05763.95506-1.5362.80979-1.47866-.14383.82758-13.71406,11.6728-23.84519,15.01549-36.78337,1.55976-6.0372,1.30958-12.581-2.58578-17.70332-3.40632-4.47922-8.49706-7.25087-13.05456-10.38092a34.98535,34.98535,0,0,1-11.52574-12.33752,52.84687,52.84687,0,0,1-5.2232-17.07691,128.78539,128.78539,0,0,1,.55994-40.24735,135.09812,135.09812,0,0,1,15.127-43.32231c.46305-.83367,1.6642.04227,1.20418.8705Z" transform="translate(-195.32909 -142.63279)" fill="#fff"/><path d="M483.49325,586.43651a19.91586,19.91586,0,0,1-19.38048-17.01376c-.13591-.94615,1.328-1.2018,1.46407-.25439a18.44166,18.44166,0,0,0,18.06024,15.7895c.9559.011.8066,1.48956-.14383,1.47865Z" transform="translate(-195.32909 -142.63279)" fill="#fff"/><path d="M498.48077,624.36186a38.38617,38.38617,0,0,0,11.85478-25.33873c.061-.95482,1.5396-.80984,1.47866.14383a39.92748,39.92748,0,0,1-12.38957,26.34217c-.696.658-1.63612-.49282-.94387-1.14727Z" transform="translate(-195.32909 -142.63279)" fill="#fff"/><path d="M488.68556,543.478a11.27338,11.27338,0,0,0,10.3019-2.8807c.68734-.66652,1.62673.48509.94386,1.14727a12.63272,12.63272,0,0,1-11.38959,3.21209.76778.76778,0,0,1-.66741-.81124.74658.74658,0,0,1,.81124-.66742Z" transform="translate(-195.32909 -142.63279)" fill="#fff"/><path d="M943.7859,252.97048H309.44784a7.15334,7.15334,0,1,1,0-14.30667H943.7859a7.15334,7.15334,0,1,1,0,14.30667Z" transform="translate(-195.32909 -142.63279)" fill="#663399"/><path d="M943.7859,281.23689H309.44784a7.15369,7.15369,0,1,1,0-14.30738H943.7859a7.15369,7.15369,0,0,1,0,14.30738Z" transform="translate(-195.32909 -142.63279)" fill="#663399"/><path d="M819.5256,309.5033H309.44784a7.15369,7.15369,0,1,1,0-14.30738H819.5256a7.15369,7.15369,0,0,1,0,14.30738Z" transform="translate(-195.32909 -142.63279)" fill="#663399"/><path d="M902.33288,540.77577c7.14923,4.8529,15.096,10.31348,17.3999,19.17105a14.56867,14.56867,0,0,1-1.48438,11.33524c-1.83453,3.05807-4.56787,5.46054-7.23407,7.77584-3.16735,2.75052-6.35974,5.45392-8.8172,8.88828-1.12536,1.57275,1.47541,3.07239,2.5904,1.51416,4.55591-6.36694,12.127-9.97357,16.13653-16.80631,4.74189-8.08081,1.57746-17.66409-4.29907-24.206-3.6673-4.08246-8.26581-7.19989-12.778-10.26273-1.60163-1.08715-3.10431,1.511-1.51416,2.59043Z" transform="translate(-195.32909 -142.63279)" fill="#e6e7e8"/><path d="M927.33288,540.77577c7.14923,4.8529,15.09594,10.31348,17.3999,19.17105a14.56867,14.56867,0,0,1-1.48438,11.33524c-1.83459,3.05807-4.56787,5.46054-7.234,7.77584-3.16736,2.75052-6.35975,5.45392-8.8172,8.88828-1.12537,1.57275,1.4754,3.07239,2.59039,1.51416,4.55591-6.36694,12.12695-9.97357,16.13647-16.80631,4.74195-8.08081,1.57752-17.66409-4.29907-24.206-3.66724-4.08246-8.26581-7.19989-12.778-10.26273-1.60163-1.08715-3.10431,1.511-1.51416,2.59043Z" transform="translate(-195.32909 -142.63279)" fill="#e6e7e8"/><path d="M318.68121,540.77577c-7.14923,4.8529-15.096,10.31348-17.3999,19.17105a14.56867,14.56867,0,0,0,1.48437,11.33524c1.83453,3.05807,4.56787,5.46054,7.23407,7.77584,3.16736,2.75052,6.35974,5.45392,8.8172,8.88828,1.12537,1.57275-1.4754,3.07239-2.59039,1.51416-4.55591-6.36694-12.127-9.97357-16.13654-16.80631-4.74188-8.08081-1.57745-17.66409,4.29907-24.206,3.6673-4.08246,8.26581-7.19989,12.778-10.26273,1.60162-1.08715,3.10431,1.511,1.51416,2.59043Z" transform="translate(-195.32909 -142.63279)" fill="#e6e7e8"/><path d="M293.68121,540.77577c-7.14923,4.8529-15.096,10.31348-17.3999,19.17105a14.56871,14.56871,0,0,0,1.48437,11.33524c1.8346,3.05807,4.56787,5.46054,7.234,7.77584,3.16736,2.75052,6.35974,5.45392,8.8172,8.88828,1.12537,1.57275-1.4754,3.07239-2.59039,1.51416-4.55591-6.36694-12.127-9.97357-16.13648-16.80631-4.74194-8.08081-1.57751-17.66409,4.29907-24.206,3.66724-4.08246,8.26581-7.19989,12.778-10.26273,1.60162-1.08715,3.10431,1.511,1.51416,2.59043Z" transform="translate(-195.32909 -142.63279)" fill="#e6e7e8"/><circle cx="374.12078" cy="270.95934" r="23.3304" fill="#2f2e41"/><circle cx="411.44943" cy="323.84159" r="59.10369" fill="#2f2e41"/><circle cx="416.34015" cy="334.90222" r="48.02842" fill="#9e616a"/><path d="M644.28545,428.57668a55.015,55.015,0,0,0-83.6423,48.0136c24.473,6.14445,50.18335,10.84658,76.282,1.46968l6.16335-15.08438,3.63364,15.09556c7.94792,3.24861,15.91643,5.99728,23.8849-.03138A56.17345,56.17345,0,0,0,644.28545,428.57668Z" transform="translate(-195.32909 -142.63279)" fill="#2f2e41"/><path d="M520.19064,566.36721h-.06348a15.66,15.66,0,0,1-14.70947-9.88867,15.99775,15.99775,0,0,1,3.65185-17.7334l.26953-.26758a49.09645,49.09645,0,0,0,14.25733-34.4209c.01123-18.21875-10.1875-35.05664-19.74756-49.40918l-1.76221-2.63965c-9.52783-14.25293-19.37988-28.99121-21.88769-45.96875-2.66309-18.03076,4.16455-37.0625,17.394-48.48584,13.73145-11.85644,34.43311-15.043,50.34326-7.749,16.49024,7.561,27.09815,26.397,24.67432,43.81348l-.0249.18066-5.79493,5.21289-.21338-.01611c-13.72167-1.05762-27.38964,7.9834-31.80615,21.01074-2.97363,8.76953-1.90429,18.37891-.30664,27.457a242.68421,242.68421,0,0,0,16.9624,55.83594q.59986,1.36084,1.21534,2.73242c4.59277,10.28418,9.34228,20.918,7.523,31.93262-2.87452,17.40723-21.35059,27.59375-37.27588,28.33984Q521.53658,566.36819,520.19064,566.36721Z" transform="translate(-195.32909 -142.63279)" fill="#2f2e41"/><path d="M729.127,707.46718a192.58693,192.58693,0,0,1-43.12,29.6l-3.31-10.66-2.67,10.39,1.04,2.66c-1.15.54-2.31,1.06-3.47,1.57q-1.48508.66-2.97,1.29a192.83742,192.83742,0,0,1-114.76,10.84c-1.01-.21-2.01-.43-3.01-.66-4.37-1-8.69-2.16-12.95-3.45l5.96-22.16-5.3-26.79-13.8,44.41a191.75182,191.75182,0,0,1-44.02-24.08c4.24-27.41,9.21-60.31,12.28-83.08,1.11-8.32,1.97-15.28,2.45-20.14a61.93584,61.93584,0,0,1,2.66-13.41,36.5563,36.5563,0,0,1,2.59-6.1c.22-.43.46-.84.7-1.24.23-.39.47-.76.72-1.12,6.14-9.15,14.02-8.59,14.02-8.59l23.52-4.59,7.35-1.44,2.99-.58,3.66-.72a20.37715,20.37715,0,0,0,13.55-9.48l9.99-16.59a20.45226,20.45226,0,0,1,8.96-8.01c.45-.2.91-.39,1.37-.57a20.20153,20.20153,0,0,1,6.34-1.27l14.14-.55,5.72-.23,7.81-.3a20.01354,20.01354,0,0,1,5.48.54h.01c.63.15,1.23.32,1.84.53a20.35441,20.35441,0,0,1,11.17,9.2l6.98,12.24a20.38712,20.38712,0,0,0,15.19,10.13l2.68.33,3.01.38,7.61.95,13.9,1.74.03.53c2.66.21,10.24,1.77,15.32,12.6.34.71.66,1.47.97,2.26a57.82658,57.82658,0,0,1,3.37,14.92c.03.22.05.44.07.66C716.89706,626.75722,723.487,670.94717,729.127,707.46718Z" transform="translate(-195.32909 -142.63279)" fill="#2f2e41"/><path d="M615.87613,752.78744l-.9491,4.42974-2.93-.63.87142-4.06312a168.28849,168.28849,0,0,0,3.7003-39.02768l-3.6817-165.73916-.07-2.98-.04-1.81,1.52-.03,1.48-.03.15,6.88,3.64223,164.00711A168.28866,168.28866,0,0,1,615.87613,752.78744Z" transform="translate(-195.32909 -142.63279)" fill="#663399"/><polygon points="303.018 499.674 345.198 505.434 348.148 505.834 349.948 506.084 349.738 507.584 349.528 509.054 342.708 508.124 302.608 502.644 303.018 499.674" fill="#663399"/><path d="M624.227,545.70718l-4.47-2.99-5.46.22-.26.01-1.22,1.83.07,2.98,3.04,2.03,3.85,2.57a4.00078,4.00078,0,1,0,4.44995-6.65Zm-.56,4.44a2.00107,2.00107,0,1,1-.55-2.78A2.00919,2.00919,0,0,1,623.667,550.14718Z" transform="translate(-195.32909 -142.63279)" fill="#663399"/></svg>