<svg data-name="Layer 1" xmlns="http://www.w3.org/2000/svg" width="848.71285" height="634" viewBox="0 0 848.71285 634" xmlns:xlink="http://www.w3.org/1999/xlink"><path d="M506.33416,309H175.64358V133H506.33416Z" transform="translate(-175.64358 -133)" fill="#fff"/><rect x="1.18386" y="1.18386" width="329.11211" height="41.8296" fill="#e4e4e4"/><path d="M506.33416,309H175.64358V133H506.33416Zm-328.32287-2.36771H503.96645V135.36771H178.01129Z" transform="translate(-175.64358 -133)" fill="#cacaca"/><path id="be9f7c95-ebd4-44b9-9282-e3238283e763-681" data-name="Path 155" d="M324.83442,210.90481c-1.56352.005-2.82851,2.03536-2.82541,4.535.0031,2.49269,1.26628,4.5122,2.82541,4.51711H458.30564c1.56352-.005,2.82851-2.03536,2.82541-4.535-.0031-2.49269-1.26628-4.5122-2.82541-4.51711Z" transform="translate(-175.64358 -133)" fill="#e4e4e4"/><path id="b7ae55e2-855e-4db9-b102-9092ce531234-682" data-name="Path 156" d="M324.83442,237.13207c-1.56352.005-2.82851,2.03537-2.82541,4.535.0031,2.49269,1.26628,4.51219,2.82541,4.51711H458.30564c1.56352-.005,2.82851-2.03536,2.82541-4.535-.0031-2.49269-1.26628-4.5122-2.82541-4.51712Z" transform="translate(-175.64358 -133)" fill="#e4e4e4"/><path id="b4ff7f44-8d54-4cd8-922f-1a10c770d871-683" data-name="Path 157" d="M324.83442,263.04212c-1.56352.005-2.82851,2.03536-2.82541,4.535.0031,2.49269,1.26628,4.51219,2.82541,4.51711h57.43287c1.56351-.005,2.82851-2.03536,2.82541-4.535-.0031-2.49269-1.26628-4.51219-2.82541-4.51711Z" transform="translate(-175.64358 -133)" fill="#e4e4e4"/><circle cx="81.42171" cy="108.15612" r="36.21861" fill="#e4e4e4"/><path d="M900.16376,309H569.47317V133H900.16376Z" transform="translate(-175.64358 -133)" fill="#fff"/><rect x="395.01345" y="1.18386" width="329.11211" height="41.8296" fill="#e4e4e4"/><path d="M900.16376,309H569.47317V133H900.16376Zm-328.32287-2.36771H897.796V135.36771H571.84089Z" transform="translate(-175.64358 -133)" fill="#cacaca"/><path id="b31be23e-8cea-40b3-88e7-702b78781d59-684" data-name="Path 155" d="M718.664,210.90481c-1.56352.005-2.82851,2.03536-2.82541,4.535.0031,2.49269,1.26628,4.5122,2.82541,4.51711H852.13524c1.56351-.005,2.82851-2.03536,2.82541-4.535-.0031-2.49269-1.26628-4.5122-2.82541-4.51711Z" transform="translate(-175.64358 -133)" fill="#e4e4e4"/><path id="aa955060-a795-42b6-a949-85ffda920310-685" data-name="Path 156" d="M718.664,237.13207c-1.56352.005-2.82851,2.03537-2.82541,4.535.0031,2.49269,1.26628,4.51219,2.82541,4.51711H852.13524c1.56351-.005,2.82851-2.03536,2.82541-4.535-.0031-2.49269-1.26628-4.5122-2.82541-4.51712Z" transform="translate(-175.64358 -133)" fill="#e4e4e4"/><path id="fc73c397-cba7-486e-aa16-1153498538f8-686" data-name="Path 157" d="M718.664,263.04212c-1.56352.005-2.82851,2.03536-2.82541,4.535.0031,2.49269,1.26628,4.51219,2.82541,4.51711h57.43286c1.56352-.005,2.82851-2.03536,2.82542-4.535-.0031-2.49269-1.26629-4.51219-2.82542-4.51711Z" transform="translate(-175.64358 -133)" fill="#e4e4e4"/><circle cx="475.25131" cy="108.15612" r="36.21861" fill="#e4e4e4"/><path d="M747.40367,481.5h-419v-223h419Z" transform="translate(-175.64358 -133)" fill="#fff"/><rect x="154.26009" y="127" width="417" height="53" fill="#663399"/><path d="M747.40367,481.5h-419v-223h419Zm-416-3h413v-217h-413Z" transform="translate(-175.64358 -133)" fill="#3f3d56"/><path id="ae5ce118-c16e-4762-944a-d3eac5dda4be-687" data-name="Path 155" d="M517.43525,357.20893c-1.981.00628-3.58385,2.57889-3.57993,5.74608.00393,3.15835,1.60444,5.71716,3.57993,5.72339h169.1141c1.981-.00628,3.58385-2.5789,3.57993-5.74608-.00393-3.15836-1.60444-5.71716-3.57993-5.72339Z" transform="translate(-175.64358 -133)" fill="#e4e4e4"/><path id="e85b2a84-e751-44d6-98f8-0a9fef92eb89-688" data-name="Path 156" d="M517.43525,390.44007c-1.981.00628-3.58385,2.5789-3.57993,5.74608.00393,3.15836,1.60444,5.71716,3.57993,5.72339h169.1141c1.981-.00628,3.58385-2.57889,3.57993-5.74608-.00393-3.15835-1.60444-5.71716-3.57993-5.72339Z" transform="translate(-175.64358 -133)" fill="#e4e4e4"/><path id="fdff5968-d41d-4113-bbcc-d74a10bcc1ca-689" data-name="Path 157" d="M517.43525,423.26928c-1.981.00628-3.58385,2.57889-3.57993,5.74608.00393,3.15835,1.60444,5.71716,3.57993,5.72339h72.77c1.981-.00628,3.58385-2.5789,3.57992-5.74608-.00392-3.15836-1.60443-5.71716-3.57992-5.72339Z" transform="translate(-175.64358 -133)" fill="#e4e4e4"/><circle cx="255.9251" cy="262.53872" r="45.89063" fill="#e4e4e4"/><polygon points="751.352 607.074 740.153 612.063 715.58 571.242 732.109 563.879 751.352 607.074" fill="#ffb6b6"/><path d="M934.68775,749.65685l-36.10946,16.08689-.20349-.45672a15.38729,15.38729,0,0,1,7.79269-20.31634l.00089-.0004,22.05447-9.82524Z" transform="translate(-175.64358 -133)" fill="#2f2e41"/><path d="M870.55805,511.6619a10.7427,10.7427,0,0,0-1.141-16.43306l-11.86437-97.12278-18.50118,4.55559,14.82322,95.51609a10.8009,10.8009,0,0,0,16.68335,13.48416Z" transform="translate(-175.64358 -133)" fill="#ffb6b6"/><path d="M864.22828,413.7519a5.31311,5.31311,0,0,1-3.02526,1.33893l-24.20529,2.4397a5.316,5.316,0,0,1-5.84405-5.53695l1.13015-24.22781a13.58423,13.58423,0,0,1,3.06939-10.02789,13.88036,13.88036,0,0,1,24.55488,7.39566l5.91612,23.36456a5.31987,5.31987,0,0,1-1.59594,5.2538Z" transform="translate(-175.64358 -133)" fill="#663399"/><path d="M849.15074,475.58643l-67.301-13.37861-.44824-9.39685.009-.05934,7.25537-48.198c-.97534-2.03214-9.60546-21.04,2.93287-31.696a65.99783,65.99783,0,0,0,8.15283-8.29635,38.72947,38.72947,0,0,1,32.93872-14.4586,26.92587,26.92587,0,0,1,19.6206,11.03465,32.85255,32.85255,0,0,1,6.30567,23.30358Z" transform="translate(-175.64358 -133)" fill="#663399"/><polygon points="605.587 620.86 593.328 620.859 587.495 573.571 605.59 573.572 605.587 620.86" fill="#ffb6b6"/><path d="M784.35766,765.74374l-39.53076-.00147v-.5A15.3873,15.3873,0,0,1,760.21337,749.856h.001l24.144.001Z" transform="translate(-175.64358 -133)" fill="#2f2e41"/><path d="M762.40367,735.5l-2.66413-196.9144A151.80309,151.80309,0,0,1,781.90364,455l0,0s59.5-.5,69,20l71,247-20,9-85-185-30.5,190.5Z" transform="translate(-175.64358 -133)" fill="#2f2e41"/><path d="M752.68326,405.53748A11.82241,11.82241,0,0,1,753.83493,407l55.698.06084,6.797-11.70006,18.99819,7.95-10.01983,21.882a8.98478,8.98478,0,0,1-9.4742,5.14885l-62.69483-9.2046a11.78926,11.78926,0,1,1-.456-15.59956Z" transform="translate(-175.64358 -133)" fill="#ffb6b6"/><path d="M804.40367,408.2796l8.11408-41.65421A17.888,17.888,0,0,1,831.6828,352.23h0a17.888,17.888,0,0,1,15.311,23.62576L834.31312,412.7796Z" transform="translate(-175.64358 -133)" fill="#663399"/><circle cx="657.03962" cy="182.87402" r="24.56103" fill="#ffb6b6"/><path d="M802.90367,302h39V285c-8.56006-3.40076-16.93653-6.29291-22,0a17.0001,17.0001,0,0,0-17,17Z" transform="translate(-175.64358 -133)" fill="#2f2e41"/><path d="M844.06285,282c23.31494,0,29.84082,29.22437,29.84082,45.7113,0,9.19458-4.15821,12.48316-10.69239,13.59589L860.90367,329l-5.40479,12.83679c-1.83545.00916-3.76367-.02637-5.76269-.06347L847.90367,338l-4.08643,3.70563c-16.3667.02435-29.59473,2.41015-29.59473-13.99433C814.22251,311.22437,819.94566,282,844.06285,282Z" transform="translate(-175.64358 -133)" fill="#2f2e41"/><path d="M1023.35642,767h-381a1,1,0,0,1,0-2h381a1,1,0,1,1,0,2Z" transform="translate(-175.64358 -133)" fill="#cacaca"/></svg>